<?xml version="1.0" standalone="no"?>
<!DOCTYPE svg PUBLIC "-//W3C//DTD SVG 20010904//EN"
 "http://www.w3.org/TR/2001/REC-SVG-20010904/DTD/svg10.dtd">
<svg version="1.0" xmlns="http://www.w3.org/2000/svg"
 width="881.000000pt" height="881.000000pt" viewBox="0 0 881.000000 881.000000"
 preserveAspectRatio="xMidYMid meet">
<metadata>
Created by potrace 1.11, written by Peter Selinger 2001-2013
</metadata>
<g transform="translate(0.000000,881.000000) scale(0.100000,-0.100000)"
fill="#000000" stroke="none">
<path d="M0 4405 l0 -4405 4405 0 4405 0 0 4405 0 4405 -4405 0 -4405 0 0
-4405z m4295 2368 c102 -53 167 -160 169 -273 0 -56 -5 -78 -32 -133 -55 -111
-147 -169 -267 -171 -117 -1 -224 63 -277 167 -30 59 -36 168 -13 238 23 68
109 158 175 182 63 23 191 18 245 -10z m1551 -176 c56 -29 102 -76 136 -140
17 -32 22 -59 23 -117 0 -141 14 -123 -465 -605 -470 -473 -460 -460 -460
-585 0 -81 24 -142 81 -204 64 -70 129 -99 224 -99 114 0 142 18 349 221 161
159 187 180 235 195 110 35 211 13 296 -65 68 -62 98 -129 97 -219 0 -120 -6
-127 -376 -499 -183 -184 -342 -349 -354 -365 -11 -17 -28 -57 -37 -89 -23
-80 -14 -136 31 -186 58 -64 121 -73 254 -35 265 75 568 -114 635 -396 66
-280 -115 -567 -397 -634 -181 -43 -352 8 -488 145 -145 144 -191 314 -139
516 17 67 19 88 10 122 -32 117 -150 162 -288 110 -48 -17 -78 -41 -173 -133
-144 -141 -178 -160 -285 -159 -66 0 -89 5 -131 27 -103 53 -164 153 -164 269
0 119 9 132 329 453 299 299 312 316 331 413 9 52 -3 139 -26 185 -26 49 -86
107 -138 135 -44 23 -63 27 -136 27 -63 0 -95 -5 -125 -19 -27 -13 -377 -355
-1090 -1066 -1003 -1001 -1053 -1049 -1108 -1069 -70 -25 -146 -27 -213 -4
-69 23 -155 110 -179 182 -23 70 -17 168 15 231 15 31 182 206 555 580 594
595 585 584 585 711 0 96 -23 154 -89 220 -66 66 -124 89 -220 89 -112 0 -147
-23 -370 -244 -215 -212 -237 -226 -351 -226 -87 0 -147 25 -211 89 -68 69
-95 140 -86 231 11 121 -9 98 735 842 614 614 693 690 746 714 197 90 419 -50
420 -266 1 -123 -7 -135 -299 -430 -170 -171 -271 -281 -285 -310 -15 -29 -25
-70 -28 -116 -7 -103 16 -163 87 -235 66 -66 124 -89 220 -89 131 0 77 -48
1091 964 503 503 931 922 950 931 58 30 82 35 155 31 51 -2 84 -10 121 -29z
m-1550 -3260 c124 -63 189 -195 163 -330 -37 -189 -246 -297 -421 -219 -65 28
-113 76 -148 144 -68 138 -21 310 108 390 88 55 208 61 298 15z"/>
</g>
</svg>
